<svg xmlns="http://www.w3.org/2000/svg" width="1200" height="630" viewBox="0 0 1200 630" role="img" aria-label="Sockethub — how it works">
  <rect width="1200" height="630" fill="#fff4e6"/>

  <circle cx="88" cy="88" r="18" fill="#ff7a2a"/>
  <circle cx="88" cy="88" r="9"  fill="#ffd19a"/>
  <text x="124" y="100" font-family="sans-serif" font-weight="700" font-size="38" fill="#1a1a1a">sockethub</text>

  <text x="88" y="240" font-family="monospace" font-weight="700" font-size="22" fill="#b04514" letter-spacing="4">HOW IT WORKS</text>

  <text x="88" y="360" font-family="sans-serif" font-weight="800" font-size="86" fill="#1a1a1a">How it works</text>

  <text x="88" y="440" font-family="sans-serif" font-weight="400" font-size="36" fill="#4a3420">Envelope, gateway, worker — one round trip.</text>

  <!-- Three chips: Client · Gateway · Protocol -->
  <g transform="translate(88 495)">
    <rect x="0"   y="0" width="150" height="60" rx="10" fill="#ffffff" stroke="#b04514" stroke-width="2"/>
    <text x="75"  y="39" font-family="monospace" font-weight="700" font-size="26" fill="#1a1a1a" text-anchor="middle">Client</text>

    <path stroke="#b04514" stroke-width="3" fill="none" stroke-linecap="round" d="M 162 30 L 214 30 M 206 22 L 216 30 L 206 38"/>

    <rect x="228" y="0" width="200" height="60" rx="10" fill="#b04514"/>
    <text x="328" y="39" font-family="monospace" font-weight="700" font-size="26" fill="#ffffff" text-anchor="middle">Sockethub</text>

    <path stroke="#b04514" stroke-width="3" fill="none" stroke-linecap="round" d="M 440 30 L 492 30 M 484 22 L 494 30 L 484 38"/>

    <rect x="506" y="0" width="180" height="60" rx="10" fill="#ffffff" stroke="#b04514" stroke-width="2"/>
    <text x="596" y="39" font-family="monospace" font-weight="700" font-size="26" fill="#1a1a1a" text-anchor="middle">Protocol</text>
  </g>

  <text x="1112" y="580" font-family="monospace" font-weight="600" font-size="24" fill="#7b3310" text-anchor="end">sockethub.org</text>
</svg>
